<svg width="53" height="13" viewBox="0 0 53 13" fill="none" xmlns="http://www.w3.org/2000/svg">
<mask id="path-1-outside-1_102_18" maskUnits="userSpaceOnUse" x="0.84082" y="0.833008" width="52" height="12" fill="black">
<rect fill="white" x="0.84082" y="0.833008" width="52" height="12"/>
<path d="M2.57227 11.0205C2.08464 11.0205 1.84082 10.8929 1.84082 10.6377V2.97461C1.84082 2.80599 1.87956 2.68522 1.95703 2.6123C2.03451 2.53483 2.15755 2.49609 2.32617 2.49609H4.88281C5.63932 2.49609 6.30924 2.68066 6.89258 3.0498C7.47591 3.41895 7.76758 4.12077 7.76758 5.15527C7.76758 5.86621 7.59896 6.41992 7.26172 6.81641C6.92448 7.20833 6.54395 7.47266 6.12012 7.60938C5.70085 7.74609 5.32715 7.81445 4.99902 7.81445H3.71387V10.6377C3.71387 10.8929 3.47005 11.0205 2.98242 11.0205H2.57227ZM4.79395 6.20801C5.08561 6.20801 5.33398 6.13053 5.53906 5.97559C5.7487 5.82064 5.85352 5.5472 5.85352 5.15527C5.85352 4.75879 5.7487 4.48079 5.53906 4.32129C5.32943 4.16178 5.08105 4.08203 4.79395 4.08203H3.71387V6.20801H4.79395ZM9.41504 11.0205C8.93197 11.0205 8.69043 10.8929 8.69043 10.6377V6.78223C8.69043 6.19889 8.65169 5.71354 8.57422 5.32617C8.55143 5.20312 8.54004 5.11654 8.54004 5.06641C8.54004 4.97526 8.62435 4.90234 8.79297 4.84766C8.96615 4.78841 9.15983 4.74512 9.37402 4.71777C9.59277 4.69043 9.76823 4.67676 9.90039 4.67676C10.0417 4.67676 10.1396 4.72917 10.1943 4.83398C10.2536 4.9388 10.306 5.09147 10.3516 5.29199L10.3926 5.46973C10.5475 5.18717 10.7253 4.96387 10.9258 4.7998C11.1309 4.63118 11.3929 4.54688 11.7119 4.54688C11.9762 4.54688 12.1585 4.61523 12.2588 4.75195C12.359 4.88411 12.4092 5.03451 12.4092 5.20312C12.4092 5.29427 12.3932 5.42415 12.3613 5.59277C12.3294 5.75684 12.2839 5.90267 12.2246 6.03027C12.1654 6.15788 12.0993 6.22168 12.0264 6.22168C11.9762 6.22168 11.901 6.20801 11.8008 6.18066C11.6641 6.14421 11.5479 6.12598 11.4521 6.12598C11.2288 6.12598 11.0329 6.18978 10.8643 6.31738C10.7002 6.44043 10.5749 6.57943 10.4883 6.73438V10.6377C10.4883 10.8929 10.2422 11.0205 9.75 11.0205H9.41504ZM15.8408 11.1025C14.8792 11.1025 14.1455 10.82 13.6396 10.2549C13.1383 9.68978 12.8877 8.8763 12.8877 7.81445C12.8877 6.75716 13.1383 5.94824 13.6396 5.3877C14.1455 4.82715 14.8792 4.54688 15.8408 4.54688C16.8024 4.54688 17.5316 4.82715 18.0283 5.3877C18.5296 5.94368 18.7803 6.7526 18.7803 7.81445C18.7803 8.8763 18.5296 9.68978 18.0283 10.2549C17.5316 10.82 16.8024 11.1025 15.8408 11.1025ZM15.8408 9.67383C16.2236 9.67383 16.5039 9.51888 16.6816 9.20898C16.8639 8.89909 16.9551 8.43424 16.9551 7.81445C16.9551 7.19922 16.8639 6.73665 16.6816 6.42676C16.5039 6.11686 16.2236 5.96191 15.8408 5.96191C15.0843 5.96191 14.7061 6.57943 14.7061 7.81445C14.7061 8.42969 14.7972 8.89453 14.9795 9.20898C15.1663 9.51888 15.4535 9.67383 15.8408 9.67383ZM20.7764 11.0205C20.2933 11.0205 20.0518 10.8929 20.0518 10.6377V6.78223C20.0518 6.19889 20.013 5.71354 19.9355 5.32617C19.9128 5.20312 19.9014 5.11654 19.9014 5.06641C19.9014 4.97526 19.9857 4.90234 20.1543 4.84766C20.3275 4.78841 20.5212 4.74512 20.7354 4.71777C20.9541 4.69043 21.1296 4.67676 21.2617 4.67676C21.403 4.67676 21.501 4.72917 21.5557 4.83398C21.6149 4.9388 21.6673 5.09147 21.7129 5.29199L21.7539 5.46973C21.9453 5.21452 22.2005 4.99805 22.5195 4.82031C22.8431 4.63802 23.1895 4.54688 23.5586 4.54688C24.1693 4.54688 24.6204 4.70638 24.9121 5.02539C25.2038 5.3444 25.3496 5.83887 25.3496 6.50879V10.6377C25.3496 10.8929 25.1035 11.0205 24.6113 11.0205H24.2764C23.7933 11.0205 23.5518 10.8929 23.5518 10.6377V6.78223C23.5518 6.53613 23.4925 6.34928 23.374 6.22168C23.2601 6.09408 23.0732 6.03027 22.8135 6.03027C22.5947 6.03027 22.401 6.10319 22.2324 6.24902C22.0638 6.39486 21.9362 6.55664 21.8496 6.73438V10.6377C21.8496 10.8929 21.6035 11.0205 21.1113 11.0205H20.7764ZM28.5693 11.1025C27.9587 11.1025 27.5075 10.943 27.2158 10.624C26.9242 10.3005 26.7783 9.80143 26.7783 9.12695V5.00488C26.7783 4.87728 26.8376 4.78158 26.9561 4.71777C27.0745 4.65397 27.2591 4.62207 27.5098 4.62207H27.8447C28.0954 4.62207 28.2799 4.65397 28.3984 4.71777C28.5169 4.78158 28.5762 4.87728 28.5762 5.00488V8.85352C28.5762 9.10417 28.6331 9.29329 28.7471 9.4209C28.861 9.5485 29.0479 9.6123 29.3076 9.6123C29.5309 9.6123 29.7246 9.54167 29.8887 9.40039C30.0573 9.25456 30.1872 9.09049 30.2783 8.9082V5.00488C30.2783 4.87728 30.3376 4.78158 30.4561 4.71777C30.5745 4.65397 30.7591 4.62207 31.0098 4.62207H31.3447C31.5954 4.62207 31.7799 4.65397 31.8984 4.71777C32.0169 4.78158 32.0762 4.87728 32.0762 5.00488V8.85352C32.0762 9.23633 32.0853 9.53711 32.1035 9.75586C32.1263 9.97005 32.1536 10.1706 32.1855 10.3574C32.2083 10.4805 32.2197 10.5671 32.2197 10.6172C32.2197 10.7083 32.1354 10.7835 31.9668 10.8428C31.7982 10.902 31.6045 10.9453 31.3857 10.9727C31.1715 11 30.9984 11.0137 30.8662 11.0137C30.7204 11.0137 30.6156 10.9567 30.5518 10.8428C30.4925 10.7243 30.4447 10.5579 30.4082 10.3438L30.374 10.1729C30.1826 10.4326 29.9251 10.6536 29.6016 10.8359C29.2826 11.0137 28.9385 11.1025 28.5693 11.1025ZM34.3115 11.0205C33.8285 11.0205 33.5869 10.8929 33.5869 10.6377V6.78223C33.5869 6.19889 33.5482 5.71354 33.4707 5.32617C33.4479 5.20312 33.4365 5.11654 33.4365 5.06641C33.4365 4.97526 33.5208 4.90234 33.6895 4.84766C33.8626 4.78841 34.0563 4.74512 34.2705 4.71777C34.4893 4.69043 34.6647 4.67676 34.7969 4.67676C34.9382 4.67676 35.0361 4.72917 35.0908 4.83398C35.1501 4.9388 35.2025 5.09147 35.248 5.29199L35.2891 5.46973C35.4805 5.21452 35.7357 4.99805 36.0547 4.82031C36.3783 4.63802 36.7246 4.54688 37.0938 4.54688C37.7044 4.54688 38.1556 4.70638 38.4473 5.02539C38.7389 5.3444 38.8848 5.83887 38.8848 6.50879V10.6377C38.8848 10.8929 38.6387 11.0205 38.1465 11.0205H37.8115C37.3285 11.0205 37.0869 10.8929 37.0869 10.6377V6.78223C37.0869 6.53613 37.0277 6.34928 36.9092 6.22168C36.7952 6.09408 36.6084 6.03027 36.3486 6.03027C36.1299 6.03027 35.9362 6.10319 35.7676 6.24902C35.599 6.39486 35.4714 6.55664 35.3848 6.73438V10.6377C35.3848 10.8929 35.1387 11.0205 34.6465 11.0205H34.3115ZM43.1641 11.1025C42.1296 11.1025 41.3617 10.8359 40.8604 10.3027C40.359 9.76497 40.1084 8.9515 40.1084 7.8623C40.1084 6.764 40.3613 5.93685 40.8672 5.38086C41.373 4.82487 42.1615 4.54688 43.2324 4.54688C43.5378 4.54688 43.8454 4.58105 44.1553 4.64941C44.4697 4.71322 44.7295 4.80892 44.9346 4.93652C45.1442 5.05957 45.249 5.20996 45.249 5.3877C45.249 5.46061 45.208 5.57454 45.126 5.72949C45.0485 5.88444 44.9574 6.02344 44.8525 6.14648C44.7523 6.26497 44.668 6.32422 44.5996 6.32422C44.5677 6.32422 44.4971 6.29232 44.3877 6.22852C44.2145 6.14648 44.0505 6.08268 43.8955 6.03711C43.7406 5.98698 43.5514 5.96191 43.3281 5.96191C42.8496 5.96191 42.501 6.11458 42.2822 6.41992C42.0635 6.7207 41.9541 7.18555 41.9541 7.81445C41.9541 8.44792 42.0566 8.91732 42.2617 9.22266C42.4714 9.52344 42.804 9.67383 43.2598 9.67383C43.5104 9.67383 43.7292 9.64876 43.916 9.59863C44.1029 9.54395 44.2806 9.47559 44.4492 9.39355C44.4811 9.37988 44.5199 9.36393 44.5654 9.3457C44.611 9.32747 44.6452 9.31836 44.668 9.31836C44.75 9.31836 44.8389 9.3776 44.9346 9.49609C45.0348 9.61003 45.1191 9.74219 45.1875 9.89258C45.2604 10.043 45.2969 10.1592 45.2969 10.2412C45.2969 10.4508 45.1602 10.6195 44.8867 10.7471C44.6133 10.8747 44.3079 10.9658 43.9707 11.0205C43.6335 11.0752 43.3646 11.1025 43.1641 11.1025ZM46.9375 3.59668C46.6823 3.59668 46.4954 3.56478 46.377 3.50098C46.263 3.43717 46.2061 3.33919 46.2061 3.20703V2.22949C46.2061 2.09733 46.2653 1.99935 46.3838 1.93555C46.5023 1.86719 46.6868 1.83301 46.9375 1.83301H47.2725C47.5231 1.83301 47.7077 1.86719 47.8262 1.93555C47.9447 1.99935 48.0039 2.09733 48.0039 2.22949V3.20703C48.0039 3.33919 47.9447 3.43717 47.8262 3.50098C47.7122 3.56478 47.5277 3.59668 47.2725 3.59668H46.9375ZM46.9375 11.0205C46.4499 11.0205 46.2061 10.8929 46.2061 10.6377V5.00488C46.2061 4.87728 46.2653 4.78158 46.3838 4.71777C46.5023 4.65397 46.6868 4.62207 46.9375 4.62207H47.2725C47.5231 4.62207 47.7077 4.65397 47.8262 4.71777C47.9447 4.78158 48.0039 4.87728 48.0039 5.00488V10.6377C48.0039 10.8929 47.7601 11.0205 47.2725 11.0205H46.9375ZM50.1641 3.59668C49.9089 3.59668 49.722 3.56478 49.6035 3.50098C49.4896 3.43717 49.4326 3.33919 49.4326 3.20703V2.22949C49.4326 2.09733 49.4919 1.99935 49.6104 1.93555C49.7288 1.86719 49.9134 1.83301 50.1641 1.83301H50.499C50.7497 1.83301 50.9342 1.86719 51.0527 1.93555C51.1712 1.99935 51.2305 2.09733 51.2305 2.22949V3.20703C51.2305 3.33919 51.1712 3.43717 51.0527 3.50098C50.9388 3.56478 50.7542 3.59668 50.499 3.59668H50.1641ZM50.1641 11.0205C49.6764 11.0205 49.4326 10.8929 49.4326 10.6377V5.00488C49.4326 4.87728 49.4919 4.78158 49.6104 4.71777C49.7288 4.65397 49.9134 4.62207 50.1641 4.62207H50.499C50.7497 4.62207 50.9342 4.65397 51.0527 4.71777C51.1712 4.78158 51.2305 4.87728 51.2305 5.00488V10.6377C51.2305 10.8929 50.9867 11.0205 50.499 11.0205H50.1641Z"/>
</mask>
<path d="M2.57227 11.0205C2.08464 11.0205 1.84082 10.8929 1.84082 10.6377V2.97461C1.84082 2.80599 1.87956 2.68522 1.95703 2.6123C2.03451 2.53483 2.15755 2.49609 2.32617 2.49609H4.88281C5.63932 2.49609 6.30924 2.68066 6.89258 3.0498C7.47591 3.41895 7.76758 4.12077 7.76758 5.15527C7.76758 5.86621 7.59896 6.41992 7.26172 6.81641C6.92448 7.20833 6.54395 7.47266 6.12012 7.60938C5.70085 7.74609 5.32715 7.81445 4.99902 7.81445H3.71387V10.6377C3.71387 10.8929 3.47005 11.0205 2.98242 11.0205H2.57227ZM4.79395 6.20801C5.08561 6.20801 5.33398 6.13053 5.53906 5.97559C5.7487 5.82064 5.85352 5.5472 5.85352 5.15527C5.85352 4.75879 5.7487 4.48079 5.53906 4.32129C5.32943 4.16178 5.08105 4.08203 4.79395 4.08203H3.71387V6.20801H4.79395ZM9.41504 11.0205C8.93197 11.0205 8.69043 10.8929 8.69043 10.6377V6.78223C8.69043 6.19889 8.65169 5.71354 8.57422 5.32617C8.55143 5.20312 8.54004 5.11654 8.54004 5.06641C8.54004 4.97526 8.62435 4.90234 8.79297 4.84766C8.96615 4.78841 9.15983 4.74512 9.37402 4.71777C9.59277 4.69043 9.76823 4.67676 9.90039 4.67676C10.0417 4.67676 10.1396 4.72917 10.1943 4.83398C10.2536 4.9388 10.306 5.09147 10.3516 5.29199L10.3926 5.46973C10.5475 5.18717 10.7253 4.96387 10.9258 4.7998C11.1309 4.63118 11.3929 4.54688 11.7119 4.54688C11.9762 4.54688 12.1585 4.61523 12.2588 4.75195C12.359 4.88411 12.4092 5.03451 12.4092 5.20312C12.4092 5.29427 12.3932 5.42415 12.3613 5.59277C12.3294 5.75684 12.2839 5.90267 12.2246 6.03027C12.1654 6.15788 12.0993 6.22168 12.0264 6.22168C11.9762 6.22168 11.901 6.20801 11.8008 6.18066C11.6641 6.14421 11.5479 6.12598 11.4521 6.12598C11.2288 6.12598 11.0329 6.18978 10.8643 6.31738C10.7002 6.44043 10.5749 6.57943 10.4883 6.73438V10.6377C10.4883 10.8929 10.2422 11.0205 9.75 11.0205H9.41504ZM15.8408 11.1025C14.8792 11.1025 14.1455 10.82 13.6396 10.2549C13.1383 9.68978 12.8877 8.8763 12.8877 7.81445C12.8877 6.75716 13.1383 5.94824 13.6396 5.3877C14.1455 4.82715 14.8792 4.54688 15.8408 4.54688C16.8024 4.54688 17.5316 4.82715 18.0283 5.3877C18.5296 5.94368 18.7803 6.7526 18.7803 7.81445C18.7803 8.8763 18.5296 9.68978 18.0283 10.2549C17.5316 10.82 16.8024 11.1025 15.8408 11.1025ZM15.8408 9.67383C16.2236 9.67383 16.5039 9.51888 16.6816 9.20898C16.8639 8.89909 16.9551 8.43424 16.9551 7.81445C16.9551 7.19922 16.8639 6.73665 16.6816 6.42676C16.5039 6.11686 16.2236 5.96191 15.8408 5.96191C15.0843 5.96191 14.7061 6.57943 14.7061 7.81445C14.7061 8.42969 14.7972 8.89453 14.9795 9.20898C15.1663 9.51888 15.4535 9.67383 15.8408 9.67383ZM20.7764 11.0205C20.2933 11.0205 20.0518 10.8929 20.0518 10.6377V6.78223C20.0518 6.19889 20.013 5.71354 19.9355 5.32617C19.9128 5.20312 19.9014 5.11654 19.9014 5.06641C19.9014 4.97526 19.9857 4.90234 20.1543 4.84766C20.3275 4.78841 20.5212 4.74512 20.7354 4.71777C20.9541 4.69043 21.1296 4.67676 21.2617 4.67676C21.403 4.67676 21.501 4.72917 21.5557 4.83398C21.6149 4.9388 21.6673 5.09147 21.7129 5.29199L21.7539 5.46973C21.9453 5.21452 22.2005 4.99805 22.5195 4.82031C22.8431 4.63802 23.1895 4.54688 23.5586 4.54688C24.1693 4.54688 24.6204 4.70638 24.9121 5.02539C25.2038 5.3444 25.3496 5.83887 25.3496 6.50879V10.6377C25.3496 10.8929 25.1035 11.0205 24.6113 11.0205H24.2764C23.7933 11.0205 23.5518 10.8929 23.5518 10.6377V6.78223C23.5518 6.53613 23.4925 6.34928 23.374 6.22168C23.2601 6.09408 23.0732 6.03027 22.8135 6.03027C22.5947 6.03027 22.401 6.10319 22.2324 6.24902C22.0638 6.39486 21.9362 6.55664 21.8496 6.73438V10.6377C21.8496 10.8929 21.6035 11.0205 21.1113 11.0205H20.7764ZM28.5693 11.1025C27.9587 11.1025 27.5075 10.943 27.2158 10.624C26.9242 10.3005 26.7783 9.80143 26.7783 9.12695V5.00488C26.7783 4.87728 26.8376 4.78158 26.9561 4.71777C27.0745 4.65397 27.2591 4.62207 27.5098 4.62207H27.8447C28.0954 4.62207 28.2799 4.65397 28.3984 4.71777C28.5169 4.78158 28.5762 4.87728 28.5762 5.00488V8.85352C28.5762 9.10417 28.6331 9.29329 28.7471 9.4209C28.861 9.5485 29.0479 9.6123 29.3076 9.6123C29.5309 9.6123 29.7246 9.54167 29.8887 9.40039C30.0573 9.25456 30.1872 9.09049 30.2783 8.9082V5.00488C30.2783 4.87728 30.3376 4.78158 30.4561 4.71777C30.5745 4.65397 30.7591 4.62207 31.0098 4.62207H31.3447C31.5954 4.62207 31.7799 4.65397 31.8984 4.71777C32.0169 4.78158 32.0762 4.87728 32.0762 5.00488V8.85352C32.0762 9.23633 32.0853 9.53711 32.1035 9.75586C32.1263 9.97005 32.1536 10.1706 32.1855 10.3574C32.2083 10.4805 32.2197 10.5671 32.2197 10.6172C32.2197 10.7083 32.1354 10.7835 31.9668 10.8428C31.7982 10.902 31.6045 10.9453 31.3857 10.9727C31.1715 11 30.9984 11.0137 30.8662 11.0137C30.7204 11.0137 30.6156 10.9567 30.5518 10.8428C30.4925 10.7243 30.4447 10.5579 30.4082 10.3438L30.374 10.1729C30.1826 10.4326 29.9251 10.6536 29.6016 10.8359C29.2826 11.0137 28.9385 11.1025 28.5693 11.1025ZM34.3115 11.0205C33.8285 11.0205 33.5869 10.8929 33.5869 10.6377V6.78223C33.5869 6.19889 33.5482 5.71354 33.4707 5.32617C33.4479 5.20312 33.4365 5.11654 33.4365 5.06641C33.4365 4.97526 33.5208 4.90234 33.6895 4.84766C33.8626 4.78841 34.0563 4.74512 34.2705 4.71777C34.4893 4.69043 34.6647 4.67676 34.7969 4.67676C34.9382 4.67676 35.0361 4.72917 35.0908 4.83398C35.1501 4.9388 35.2025 5.09147 35.248 5.29199L35.2891 5.46973C35.4805 5.21452 35.7357 4.99805 36.0547 4.82031C36.3783 4.63802 36.7246 4.54688 37.0938 4.54688C37.7044 4.54688 38.1556 4.70638 38.4473 5.02539C38.7389 5.3444 38.8848 5.83887 38.8848 6.50879V10.6377C38.8848 10.8929 38.6387 11.0205 38.1465 11.0205H37.8115C37.3285 11.0205 37.0869 10.8929 37.0869 10.6377V6.78223C37.0869 6.53613 37.0277 6.34928 36.9092 6.22168C36.7952 6.09408 36.6084 6.03027 36.3486 6.03027C36.1299 6.03027 35.9362 6.10319 35.7676 6.24902C35.599 6.39486 35.4714 6.55664 35.3848 6.73438V10.6377C35.3848 10.8929 35.1387 11.0205 34.6465 11.0205H34.3115ZM43.1641 11.1025C42.1296 11.1025 41.3617 10.8359 40.8604 10.3027C40.359 9.76497 40.1084 8.9515 40.1084 7.8623C40.1084 6.764 40.3613 5.93685 40.8672 5.38086C41.373 4.82487 42.1615 4.54688 43.2324 4.54688C43.5378 4.54688 43.8454 4.58105 44.1553 4.64941C44.4697 4.71322 44.7295 4.80892 44.9346 4.93652C45.1442 5.05957 45.249 5.20996 45.249 5.3877C45.249 5.46061 45.208 5.57454 45.126 5.72949C45.0485 5.88444 44.9574 6.02344 44.8525 6.14648C44.7523 6.26497 44.668 6.32422 44.5996 6.32422C44.5677 6.32422 44.4971 6.29232 44.3877 6.22852C44.2145 6.14648 44.0505 6.08268 43.8955 6.03711C43.7406 5.98698 43.5514 5.96191 43.3281 5.96191C42.8496 5.96191 42.501 6.11458 42.2822 6.41992C42.0635 6.7207 41.9541 7.18555 41.9541 7.81445C41.9541 8.44792 42.0566 8.91732 42.2617 9.22266C42.4714 9.52344 42.804 9.67383 43.2598 9.67383C43.5104 9.67383 43.7292 9.64876 43.916 9.59863C44.1029 9.54395 44.2806 9.47559 44.4492 9.39355C44.4811 9.37988 44.5199 9.36393 44.5654 9.3457C44.611 9.32747 44.6452 9.31836 44.668 9.31836C44.75 9.31836 44.8389 9.3776 44.9346 9.49609C45.0348 9.61003 45.1191 9.74219 45.1875 9.89258C45.2604 10.043 45.2969 10.1592 45.2969 10.2412C45.2969 10.4508 45.1602 10.6195 44.8867 10.7471C44.6133 10.8747 44.3079 10.9658 43.9707 11.0205C43.6335 11.0752 43.3646 11.1025 43.1641 11.1025ZM46.9375 3.59668C46.6823 3.59668 46.4954 3.56478 46.377 3.50098C46.263 3.43717 46.2061 3.33919 46.2061 3.20703V2.22949C46.2061 2.09733 46.2653 1.99935 46.3838 1.93555C46.5023 1.86719 46.6868 1.83301 46.9375 1.83301H47.2725C47.5231 1.83301 47.7077 1.86719 47.8262 1.93555C47.9447 1.99935 48.0039 2.09733 48.0039 2.22949V3.20703C48.0039 3.33919 47.9447 3.43717 47.8262 3.50098C47.7122 3.56478 47.5277 3.59668 47.2725 3.59668H46.9375ZM46.9375 11.0205C46.4499 11.0205 46.2061 10.8929 46.2061 10.6377V5.00488C46.2061 4.87728 46.2653 4.78158 46.3838 4.71777C46.5023 4.65397 46.6868 4.62207 46.9375 4.62207H47.2725C47.5231 4.62207 47.7077 4.65397 47.8262 4.71777C47.9447 4.78158 48.0039 4.87728 48.0039 5.00488V10.6377C48.0039 10.8929 47.7601 11.0205 47.2725 11.0205H46.9375ZM50.1641 3.59668C49.9089 3.59668 49.722 3.56478 49.6035 3.50098C49.4896 3.43717 49.4326 3.33919 49.4326 3.20703V2.22949C49.4326 2.09733 49.4919 1.99935 49.6104 1.93555C49.7288 1.86719 49.9134 1.83301 50.1641 1.83301H50.499C50.7497 1.83301 50.9342 1.86719 51.0527 1.93555C51.1712 1.99935 51.2305 2.09733 51.2305 2.22949V3.20703C51.2305 3.33919 51.1712 3.43717 51.0527 3.50098C50.9388 3.56478 50.7542 3.59668 50.499 3.59668H50.1641ZM50.1641 11.0205C49.6764 11.0205 49.4326 10.8929 49.4326 10.6377V5.00488C49.4326 4.87728 49.4919 4.78158 49.6104 4.71777C49.7288 4.65397 49.9134 4.62207 50.1641 4.62207H50.499C50.7497 4.62207 50.9342 4.65397 51.0527 4.71777C51.1712 4.78158 51.2305 4.87728 51.2305 5.00488V10.6377C51.2305 10.8929 50.9867 11.0205 50.499 11.0205H50.1641Z" stroke="url(#paint0_linear_102_18)" stroke-width="2" mask="url(#path-1-outside-1_102_18)"/>
<defs>
<linearGradient id="paint0_linear_102_18" x1="2" y1="7" x2="52" y2="7" gradientUnits="userSpaceOnUse">
<stop stop-color="#F86F03"/>
<stop offset="1" stop-color="#FFA41B"/>
</linearGradient>
</defs>
</svg>
