<svg width="390" height="134" viewBox="0 0 390 134" fill="none" xmlns="http://www.w3.org/2000/svg">
<path d="M390 134H0V19.6533C2.4381 11.6039 12.4238 1.1755 25.5603 0C45.8968 0.836476 56.9911 14.3609 89.8732 27.3955C122.755 40.4301 149.154 7.76349 185.518 15.4844C222.888 23.4189 222.37 53.6731 258.076 64.9155C291.561 75.4586 321.4 55.6614 351.247 70.8711C381.755 86.4175 390 134 390 134Z" fill="#FFA41B" fill-opacity="0.3"/>
<path d="M379.885 134H0V37.5733C2.37486 30.7854 12.1016 21.9913 24.8973 21C44.7064 21.7054 55.513 33.1103 87.5422 44.1022C119.571 55.0941 145.285 27.5468 180.706 34.0578C217.107 40.7488 216.603 66.2616 251.382 75.7422C283.999 84.633 313.064 67.9383 342.137 80.7644C371.854 93.8744 379.885 134 379.885 134Z" fill="#FFA41B" fill-opacity="0.4"/>
<path d="M118.666 36.6669L116.5 41L114.334 36.6669L110 34.5L114.334 32.3331L116.5 28L118.666 32.3331L123 34.5L118.666 36.6669Z" fill="#F86F03"/>
<path d="M183.666 85.6669L181.5 90L179.334 85.6669L175 83.5L179.334 81.3331L181.5 77L183.666 81.3331L188 83.5L183.666 85.6669Z" fill="#F86F03"/>
<path d="M135 27.0002L133.5 30L132 27.0002L129 25.5L132 23.9998L133.5 21L135 23.9998L138 25.5L135 27.0002Z" fill="#F86F03"/>
<path d="M178 73.0002L176.5 76L175 73.0002L172 71.5L175 69.9998L176.5 67L178 69.9998L181 71.5L178 73.0002Z" fill="#F86F03"/>
<path d="M142.375 50.5312C142.375 44.1626 147.58 39 154 39C160.42 39 165.625 44.1626 165.625 50.5312C165.625 56.8997 160.42 62.0625 154 62.0625C147.58 62.0625 142.375 56.8997 142.375 50.5312ZM183.487 50.7511C181.469 48.7497 178.198 48.7497 176.18 50.7511L162.193 64.625H145.807L131.82 50.7511C129.802 48.7497 126.531 48.7497 124.513 50.7511C122.496 52.7526 122.496 55.9975 124.513 57.999L139.792 73.154V115.875C139.792 118.705 142.105 121 144.958 121H147.542C150.395 121 152.708 118.705 152.708 115.875V97.9375H155.292V115.875C155.292 118.705 157.605 121 160.458 121H163.042C165.895 121 168.208 118.705 168.208 115.875V73.154L183.487 57.9989C185.504 55.9974 185.504 52.7526 183.487 50.7511Z" fill="#FDAB6A"/>
<path d="M137.375 47.5312C137.375 41.1626 142.58 36 149 36C155.42 36 160.625 41.1626 160.625 47.5312C160.625 53.8997 155.42 59.0625 149 59.0625C142.58 59.0625 137.375 53.8997 137.375 47.5312ZM178.487 47.7511C176.469 45.7497 173.198 45.7497 171.18 47.7511L157.193 61.625H140.807L126.82 47.7511C124.802 45.7497 121.531 45.7497 119.513 47.7511C117.496 49.7526 117.496 52.9975 119.513 54.999L134.792 70.154V112.875C134.792 115.705 137.105 118 139.958 118H142.542C145.395 118 147.708 115.705 147.708 112.875V94.9375H150.292V112.875C150.292 115.705 152.605 118 155.458 118H158.042C160.895 118 163.208 115.705 163.208 112.875V70.154L178.487 54.9989C180.504 52.9974 180.504 49.7526 178.487 47.7511Z" fill="#F86F03"/>
<path d="M244.071 7.85715C221.07 7.85715 202.429 22.2259 202.429 39.9592C202.429 47.6143 205.91 54.6212 211.701 60.131C209.667 67.9096 202.868 74.8393 202.786 74.9165C202.429 75.2714 202.331 75.7962 202.542 76.2592C202.754 76.7222 203.209 77 203.73 77C214.515 77 222.599 72.0921 226.601 69.0671C231.92 70.9654 237.825 72.0612 244.071 72.0612C267.073 72.0612 285.714 57.6925 285.714 39.9592C285.714 22.2259 267.073 7.85715 244.071 7.85715ZM223.25 44.898C220.371 44.898 218.045 42.6909 218.045 39.9592C218.045 37.2274 220.371 35.0204 223.25 35.0204C226.129 35.0204 228.455 37.2274 228.455 39.9592C228.455 42.6909 226.129 44.898 223.25 44.898ZM244.071 44.898C241.192 44.898 238.866 42.6909 238.866 39.9592C238.866 37.2274 241.192 35.0204 244.071 35.0204C246.951 35.0204 249.277 37.2274 249.277 39.9592C249.277 42.6909 246.951 44.898 244.071 44.898ZM264.893 44.898C262.014 44.898 259.688 42.6909 259.688 39.9592C259.688 37.2274 262.014 35.0204 264.893 35.0204C267.772 35.0204 270.098 37.2274 270.098 39.9592C270.098 42.6909 267.772 44.898 264.893 44.898Z" fill="#FDAB6A"/>
<path d="M234.643 0C211.642 0 193 14.3687 193 32.102C193 39.7571 196.481 46.764 202.272 52.2739C200.239 60.0524 193.439 66.9821 193.358 67.0593C193 67.4143 192.902 67.939 193.114 68.402C193.325 68.8651 193.781 69.1429 194.301 69.1429C205.086 69.1429 213.171 64.2349 217.172 61.2099C222.492 63.1083 228.396 64.2041 234.643 64.2041C257.644 64.2041 276.286 49.8353 276.286 32.102C276.286 14.3687 257.644 0 234.643 0ZM213.821 37.0408C210.942 37.0408 208.616 34.8338 208.616 32.102C208.616 29.3703 210.942 27.1633 213.821 27.1633C216.701 27.1633 219.027 29.3703 219.027 32.102C219.027 34.8338 216.701 37.0408 213.821 37.0408ZM234.643 37.0408C231.764 37.0408 229.438 34.8338 229.438 32.102C229.438 29.3703 231.764 27.1633 234.643 27.1633C237.522 27.1633 239.848 29.3703 239.848 32.102C239.848 34.8338 237.522 37.0408 234.643 37.0408ZM255.464 37.0408C252.585 37.0408 250.259 34.8338 250.259 32.102C250.259 29.3703 252.585 27.1633 255.464 27.1633C258.343 27.1633 260.67 29.3703 260.67 32.102C260.67 34.8338 258.343 37.0408 255.464 37.0408Z" fill="#F86F03"/>
</svg>
