<svg width="390" height="93" viewBox="0 0 390 93" fill="none" xmlns="http://www.w3.org/2000/svg">
<path d="M390 7.62939e-06L0 7.62939e-06L0 78.7387C2.4381 84.2814 12.4238 91.4624 25.5603 92.2719C45.8968 91.6959 56.9911 82.383 89.8732 73.4074C122.755 64.4318 149.154 86.9259 185.518 81.6093C222.888 76.1457 222.37 55.3128 258.076 47.5713C291.561 40.3114 321.4 53.9437 351.247 43.4703C381.755 32.7651 390 7.62939e-06 390 7.62939e-06Z" fill="#FFA41B" fill-opacity="0.46"/>
<path d="M379.885 7.62939e-06L0 7.62939e-06L0 66.399C2.37486 71.0731 12.1016 77.1287 24.8973 77.8113C44.7064 77.3256 55.513 69.4722 87.5422 61.9033C119.571 54.3343 145.285 73.3032 180.706 68.8198C217.107 64.2124 216.603 46.6444 251.383 40.1161C283.999 33.9939 313.064 45.4898 342.137 36.6578C371.854 27.6303 379.885 7.62939e-06 379.885 7.62939e-06Z" fill="#FFA41B"/>
<path d="M143.734 39.0527C142.48 39.0527 141.854 38.7246 141.854 38.0684V18.3633C141.854 17.9297 141.953 17.6191 142.152 17.4316C142.352 17.2324 142.668 17.1328 143.102 17.1328H149.201C154.381 17.1328 156.971 19.084 156.971 22.9863C156.971 24.1699 156.637 25.1895 155.969 26.0449C155.312 26.9004 154.428 27.5391 153.314 27.9609V28.084C153.701 28.248 154.105 28.5996 154.527 29.1387C154.961 29.6777 155.307 30.2871 155.564 30.9668L158.324 37.8398C158.418 38.1211 158.465 38.3203 158.465 38.4375C158.465 38.8477 157.844 39.0527 156.602 39.0527H155.318C154.275 39.0527 153.672 38.8359 153.508 38.4023L151.029 32.3027C150.795 31.834 150.566 31.4707 150.344 31.2129C150.133 30.9551 149.834 30.7617 149.447 30.6328C149.061 30.4922 148.539 30.4219 147.883 30.4219H146.67V38.0684C146.67 38.7246 146.043 39.0527 144.789 39.0527H143.734ZM149.623 26.2734C150.045 26.2734 150.443 26.1562 150.818 25.9219C151.193 25.6758 151.492 25.3477 151.715 24.9375C151.938 24.5273 152.049 24.0762 152.049 23.584C152.049 22.8574 151.809 22.2832 151.328 21.8613C150.859 21.4277 150.221 21.2109 149.412 21.2109H146.67V26.2734H149.623ZM168.256 39.2637C165.514 39.2637 163.469 38.5312 162.121 37.0664C160.773 35.5898 160.1 33.5449 160.1 30.9316C160.1 27.9902 160.773 25.834 162.121 24.4629C163.469 23.0918 165.326 22.4062 167.693 22.4062C169.264 22.4062 170.547 22.7637 171.543 23.4785C172.551 24.1934 173.283 25.1543 173.74 26.3613C174.209 27.5684 174.443 28.9336 174.443 30.457C174.443 30.6328 174.338 30.8672 174.127 31.1602C173.928 31.4531 173.699 31.7168 173.441 31.9512C173.184 32.1855 172.984 32.3027 172.844 32.3027H164.881C164.986 33.498 165.338 34.3477 165.936 34.8516C166.545 35.3438 167.389 35.5898 168.467 35.5898C169.053 35.5898 169.58 35.5254 170.049 35.3965C170.529 35.2559 171.039 35.0742 171.578 34.8516C171.906 34.6992 172.129 34.623 172.246 34.623C172.457 34.623 172.686 34.7754 172.932 35.0801C173.189 35.373 173.406 35.7129 173.582 36.0996C173.77 36.4863 173.863 36.7852 173.863 36.9961C173.863 37.4766 173.535 37.8867 172.879 38.2266C172.234 38.5664 171.467 38.8242 170.576 39C169.697 39.1758 168.924 39.2637 168.256 39.2637ZM169.943 29.2266C169.943 28.2656 169.756 27.498 169.381 26.9238C169.006 26.3379 168.443 26.0449 167.693 26.0449C166.146 26.0449 165.209 27.1055 164.881 29.2266H169.943ZM181.809 39.2637C181 39.2637 180.197 39.1758 179.4 39C178.604 38.8242 177.941 38.5723 177.414 38.2441C176.898 37.916 176.641 37.541 176.641 37.1191C176.641 36.8613 176.734 36.5391 176.922 36.1523C177.109 35.7656 177.332 35.4316 177.59 35.1504C177.859 34.8574 178.094 34.7109 178.293 34.7109C178.398 34.7109 178.627 34.793 178.979 34.957C179.389 35.1445 179.781 35.2969 180.156 35.4141C180.531 35.5312 180.959 35.5898 181.439 35.5898C182.037 35.5898 182.488 35.4785 182.793 35.2559C183.098 35.0332 183.25 34.7051 183.25 34.2715C183.25 33.9434 183.156 33.6738 182.969 33.4629C182.793 33.2402 182.564 33.0586 182.283 32.918C182.002 32.7773 181.604 32.6074 181.088 32.4082L180.578 32.2148C179.91 31.957 179.324 31.6641 178.82 31.3359C178.316 31.0078 177.889 30.5332 177.537 29.9121C177.186 29.2793 177.01 28.4824 177.01 27.5215C177.01 26.4551 177.238 25.541 177.695 24.7793C178.164 24.0059 178.826 23.4199 179.682 23.0215C180.537 22.6113 181.545 22.4062 182.705 22.4062C183.373 22.4062 184.07 22.4707 184.797 22.5996C185.523 22.7285 186.133 22.9277 186.625 23.1973C187.129 23.4668 187.381 23.8066 187.381 24.2168C187.381 24.4512 187.305 24.7676 187.152 25.166C187.012 25.5645 186.836 25.916 186.625 26.2207C186.414 26.5254 186.215 26.6777 186.027 26.6777C185.969 26.6777 185.805 26.625 185.535 26.5195C185.172 26.3672 184.82 26.25 184.48 26.168C184.152 26.0742 183.771 26.0273 183.338 26.0273C182.236 26.0273 181.686 26.3906 181.686 27.1172C181.686 27.4453 181.785 27.7266 181.984 27.9609C182.195 28.1953 182.453 28.3887 182.758 28.541C183.062 28.6934 183.49 28.875 184.041 29.0859C184.674 29.3438 185.066 29.5078 185.219 29.5781C186.039 29.9883 186.695 30.5332 187.188 31.2129C187.691 31.8809 187.943 32.7773 187.943 33.9023C187.943 34.9688 187.703 35.9062 187.223 36.7148C186.742 37.5234 186.039 38.1504 185.113 38.5957C184.188 39.041 183.086 39.2637 181.809 39.2637ZM195.01 39.2637C193.439 39.2637 192.279 38.8535 191.529 38.0332C190.779 37.2012 190.404 35.918 190.404 34.1836V23.584C190.404 23.2559 190.557 23.0098 190.861 22.8457C191.166 22.6816 191.641 22.5996 192.285 22.5996H193.146C193.791 22.5996 194.266 22.6816 194.57 22.8457C194.875 23.0098 195.027 23.2559 195.027 23.584V33.4805C195.027 34.125 195.174 34.6113 195.467 34.9395C195.76 35.2676 196.24 35.4316 196.908 35.4316C197.482 35.4316 197.98 35.25 198.402 34.8867C198.836 34.5117 199.17 34.0898 199.404 33.6211V23.584C199.404 23.2559 199.557 23.0098 199.861 22.8457C200.166 22.6816 200.641 22.5996 201.285 22.5996H202.146C202.791 22.5996 203.266 22.6816 203.57 22.8457C203.875 23.0098 204.027 23.2559 204.027 23.584V33.4805C204.027 34.4648 204.051 35.2383 204.098 35.8008C204.156 36.3516 204.227 36.8672 204.309 37.3477C204.367 37.6641 204.396 37.8867 204.396 38.0156C204.396 38.25 204.18 38.4434 203.746 38.5957C203.312 38.748 202.814 38.8594 202.252 38.9297C201.701 39 201.256 39.0352 200.916 39.0352C200.541 39.0352 200.271 38.8887 200.107 38.5957C199.955 38.291 199.832 37.8633 199.738 37.3125L199.65 36.873C199.158 37.541 198.496 38.1094 197.664 38.5781C196.844 39.0352 195.959 39.2637 195.01 39.2637ZM212.5 39.2637C211.012 39.2637 209.875 38.8477 209.09 38.0156C208.316 37.1719 207.93 35.8945 207.93 34.1836V16.4473C207.93 15.7676 208.557 15.4277 209.811 15.4277H210.689C211.334 15.4277 211.803 15.5156 212.096 15.6914C212.4 15.8555 212.553 16.1074 212.553 16.4473V34.2363C212.553 34.7168 212.641 35.0625 212.816 35.2734C212.992 35.4844 213.285 35.5898 213.695 35.5898C213.801 35.5898 213.959 35.5664 214.17 35.5195C214.229 35.5078 214.287 35.4961 214.346 35.4844C214.404 35.4727 214.469 35.4668 214.539 35.4668C214.715 35.4668 214.873 35.625 215.014 35.9414C215.166 36.2461 215.283 36.5918 215.365 36.9785C215.447 37.3535 215.488 37.5996 215.488 37.7168C215.488 38.748 214.492 39.2637 212.5 39.2637ZM222.256 39.2637C220.768 39.2637 219.631 38.8477 218.846 38.0156C218.072 37.1719 217.686 35.8945 217.686 34.1836V26.3086H217.193C216.865 26.3086 216.625 26.1855 216.473 25.9395C216.332 25.6934 216.262 25.2949 216.262 24.7441V24.2168C216.262 23.666 216.332 23.2676 216.473 23.0215C216.625 22.7754 216.865 22.6523 217.193 22.6523H217.686L218.09 19.6816C218.184 19.0254 218.746 18.6973 219.777 18.6973H220.762C221.301 18.6973 221.693 18.7793 221.939 18.9434C222.197 19.1074 222.326 19.3535 222.326 19.6816V22.6523H223.855C224.184 22.6523 224.418 22.7754 224.559 23.0215C224.711 23.2676 224.787 23.666 224.787 24.2168V24.7441C224.787 25.2949 224.711 25.6934 224.559 25.9395C224.418 26.1855 224.184 26.3086 223.855 26.3086H222.326V34.2363C222.326 34.7168 222.408 35.0625 222.572 35.2734C222.748 35.4844 223.035 35.5898 223.434 35.5898C223.551 35.5898 223.709 35.5723 223.908 35.5371C224.107 35.4902 224.23 35.4668 224.277 35.4668C224.465 35.4668 224.629 35.625 224.77 35.9414C224.922 36.2461 225.039 36.5859 225.121 36.9609C225.215 37.3359 225.262 37.5879 225.262 37.7168C225.262 38.748 224.26 39.2637 222.256 39.2637Z" fill="#FFF6F4"/>
</svg>
