<svg width="390" height="96" viewBox="0 0 390 96" fill="none" xmlns="http://www.w3.org/2000/svg">
<path d="M390 0L0 0L0 81.92C2.4381 87.6867 12.4238 95.1579 25.5603 96C45.8968 95.4007 56.9911 85.7116 89.8732 76.3733C122.755 67.0351 149.154 90.4381 185.518 84.9067C222.888 79.2223 222.37 57.5476 258.076 49.4933C291.561 41.9401 321.4 56.1232 351.247 45.2267C381.755 34.089 390 0 390 0Z" fill="#FFA41B" fill-opacity="0.46"/>
<path d="M379.885 7.62939e-06L0 7.62939e-06L0 69.0818C2.37486 73.9448 12.1016 80.2451 24.8973 80.9552C44.7064 80.4499 55.513 72.2792 87.5422 64.4044C119.571 56.5296 145.285 76.265 180.706 71.6004C217.107 66.8069 216.603 48.529 251.383 41.7369C283.999 35.3674 313.064 47.3278 342.137 38.1389C371.854 28.7467 379.885 7.62939e-06 379.885 7.62939e-06Z" fill="#FFA41B"/>
</svg>
